<?xml version="1.0" encoding="utf-8"?>
<!-- Uploaded to: SVG Repo, www.svgrepo.com, Generator: SVG Repo Mixer Tools -->
<svg width="800px" height="800px" viewBox="0 0 1024 1024" class="icon"  version="1.1" xmlns="http://www.w3.org/2000/svg"><path d="M528.424144 104.341082l92.791656 291.069096h302.389172L678.590238 574.44779l94.075607 290.982066-244.241701-180.524293-244.245796 180.524293 94.079703-290.982066-245.014734-179.037612h302.359479z" fill="#98C4D8" /><path d="M499.151263 75.0682l92.791655 291.069097h302.389173L649.317356 545.174908l94.075608 290.982066-244.241701-180.524293-244.245796 180.524293 94.079703-290.982066-245.014735-179.037611h302.360504z" fill="#EFD9A0" /><path d="M408.625276 397.741079a26.335354 55.963524 55.515 1 0 92.258605-63.372027 26.335354 55.963524 55.515 1 0-92.258605 63.372027Z" fill="#FEFEFE" /><path d="M352.074015 489.837667a17.557586 30.724751 55.515 1 0 50.651254-34.792122 17.557586 30.724751 55.515 1 0-50.651254 34.792122Z" fill="#FEFEFE" /></svg>